<?xml version="1.0" standalone="no"?>
<!DOCTYPE svg PUBLIC "-//W3C//DTD SVG 20010904//EN"
 "http://www.w3.org/TR/2001/REC-SVG-20010904/DTD/svg10.dtd">
<svg version="1.0" xmlns="http://www.w3.org/2000/svg"
 width="512.000000pt" height="512.000000pt" viewBox="0 0 512.000000 512.000000"
 preserveAspectRatio="xMidYMid meet">
<metadata>
Created by potrace 1.14, written by Peter Selinger 2001-2017
</metadata>
<g transform="translate(0.000000,512.000000) scale(0.100000,-0.100000)"
fill="#000000" stroke="none">
<path d="M2528 4815 c-2 -2 -50 -5 -108 -9 -103 -6 -160 -12 -210 -21 -14 -3
-41 -7 -60 -10 -19 -4 -55 -11 -80 -16 -25 -6 -53 -12 -63 -14 -53 -11 -205
-62 -299 -101 -281 -114 -516 -271 -734 -488 -155 -156 -262 -291 -358 -456
-151 -258 -256 -570 -293 -870 -10 -81 -10 -466 -1 -539 13 -94 28 -174 53
-276 22 -90 36 -135 90 -285 35 -98 141 -297 222 -418 46 -70 87 -129 91 -132
4 -3 27 -30 52 -60 124 -154 303 -314 485 -435 146 -96 248 -150 440 -230 65
-27 259 -83 346 -100 94 -19 204 -35 279 -41 61 -5 315 -5 370 1 379 36 723
154 1030 352 264 171 500 408 673 673 164 252 290 581 331 860 2 19 8 57 12
84 10 73 13 124 13 286 1 169 -6 233 -45 460 -10 57 -72 266 -100 338 -54 137
-192 405 -223 432 -3 3 -19 25 -36 50 -59 90 -194 247 -291 339 -314 298 -686
493 -1096 575 -154 31 -186 35 -328 42 -63 3 -125 6 -137 8 -13 2 -24 2 -25 1z
m177 -420 c149 -12 220 -24 345 -59 232 -64 461 -180 654 -331 21 -16 87 -77
146 -135 155 -152 244 -271 339 -452 94 -179 156 -360 185 -538 3 -19 8 -44
10 -55 15 -80 22 -331 11 -430 -12 -115 -17 -147 -35 -225 -11 -47 -22 -96
-25 -109 -13 -53 -61 -182 -101 -270 -239 -515 -694 -889 -1249 -1025 -213
-52 -489 -62 -710 -26 -180 29 -364 87 -520 163 -71 35 -214 117 -237 136 -7
6 -47 36 -88 67 -246 186 -461 470 -580 769 -37 92 -87 259 -95 319 -3 23 -8
48 -10 56 -16 59 -25 169 -26 310 0 339 87 656 263 949 285 477 769 795 1333
877 17 3 71 7 120 10 50 4 91 7 92 8 3 2 105 -3 178 -9z"/>
<path d="M2092 3384 c-13 -9 -28 -28 -33 -42 -6 -15 -10 -318 -10 -788 0 -704
2 -766 17 -790 22 -32 58 -47 97 -38 16 3 69 32 118 63 171 108 385 245 509
326 69 45 217 141 330 213 113 72 217 143 230 157 35 37 35 112 1 149 -14 15
-124 90 -245 168 -122 78 -366 235 -543 349 -178 115 -337 216 -355 225 -47
24 -89 27 -116 8z"/>
</g>
</svg>
